<mxfile host="app.diagrams.net" modified="2020-12-11T21:17:44.523Z" agent="5.0 (Windows NT 10.0; Win64; x64) AppleWebKit/537.36 (KHTML, like Gecko) Chrome/87.0.4280.88 Safari/537.36" etag="J3vSjCya6IAzXy48sgdd" version="14.0.1" type="github">
  <diagram id="a45cf8ec-cd66-6f27-3ac3-be6e809c9e4a" name="Page-1">
    <mxGraphModel dx="2500" dy="2065" grid="1" gridSize="10" guides="1" tooltips="1" connect="1" arrows="1" fold="1" page="1" pageScale="1" pageWidth="827" pageHeight="1169" background="#ffffff" math="0" shadow="0">
      <root>
        <mxCell id="0" />
        <mxCell id="1" parent="0" />
        <mxCell id="0GKLrgqh9CLTe_BwdtgN-189" value="&lt;span&gt;Consumers&lt;/span&gt;" style="rounded=1;whiteSpace=wrap;html=1;shadow=0;strokeColor=none;fillColor=#BAC8D3;gradientColor=none;fontSize=18;fontColor=#AE4132;verticalAlign=top;opacity=70;fontStyle=0;strokeWidth=3;" vertex="1" parent="1">
          <mxGeometry x="-310" y="-210" width="410" height="301" as="geometry" />
        </mxCell>
        <mxCell id="3" value="CleanItSupply.com Environment - AWS" style="rounded=1;whiteSpace=wrap;html=1;shadow=0;strokeColor=none;fillColor=#BAC8D3;gradientColor=none;fontSize=18;fontColor=#F08705;opacity=40;fontStyle=0;strokeWidth=3;verticalAlign=top;" parent="1" vertex="1">
          <mxGeometry x="440" y="30" width="920" height="660" as="geometry" />
        </mxCell>
        <mxCell id="4" value="&lt;span&gt;Web Environment&amp;nbsp;&lt;/span&gt;" style="rounded=1;whiteSpace=wrap;html=1;shadow=0;strokeColor=none;fillColor=#BAC8D3;gradientColor=none;fontSize=18;fontColor=#AE4132;verticalAlign=top;opacity=70;fontStyle=0;strokeWidth=3;" parent="1" vertex="1">
          <mxGeometry x="490" y="79" width="370" height="301" as="geometry" />
        </mxCell>
        <mxCell id="10" value="&lt;span style=&quot;line-height: 17.1818180084229px&quot;&gt;EDI Environment&lt;br&gt;&lt;/span&gt;" style="rounded=1;whiteSpace=wrap;html=1;shadow=0;strokeColor=none;fillColor=#BAC8D3;gradientColor=none;fontSize=18;fontColor=#AE4132;verticalAlign=top;opacity=70;fontStyle=0;strokeWidth=3;" parent="1" vertex="1">
          <mxGeometry x="920" y="79" width="400" height="301" as="geometry" />
        </mxCell>
        <mxCell id="50" value="WWW" style="ellipse;shape=cloud;whiteSpace=wrap;html=1;shadow=0;strokeColor=#23445D;fillColor=#BAC8D3;gradientColor=none;fontSize=18;fontColor=#23445D;fontStyle=0;gradientDirection=north;strokeWidth=2;" parent="1" vertex="1">
          <mxGeometry x="210" y="-67.5" width="120" height="80" as="geometry" />
        </mxCell>
        <mxCell id="168" value="CleanItSupply.com" style="text;html=1;strokeColor=none;fillColor=none;align=center;verticalAlign=middle;whiteSpace=wrap;overflow=hidden;shadow=0;fontSize=36;fontColor=#AE4132;fontStyle=0" parent="1" vertex="1">
          <mxGeometry x="560" y="-340" width="600" height="45" as="geometry" />
        </mxCell>
        <mxCell id="171" style="edgeStyle=orthogonalEdgeStyle;rounded=0;jumpStyle=none;html=1;exitX=0;exitY=0.5;entryX=0;entryY=0.5;shadow=0;labelBackgroundColor=none;startArrow=none;startFill=0;endArrow=classic;endFill=1;endSize=6;jettySize=auto;orthogonalLoop=1;strokeColor=#23445D;strokeWidth=2;fillColor=#F08705;fontFamily=Helvetica;fontSize=14;fontColor=#F08705;align=left;fontStyle=0" parent="1" source="168" target="168" edge="1">
          <mxGeometry relative="1" as="geometry" />
        </mxCell>
        <mxCell id="0GKLrgqh9CLTe_BwdtgN-174" value="" style="verticalLabelPosition=bottom;aspect=fixed;html=1;verticalAlign=top;strokeColor=none;align=center;outlineConnect=0;shape=mxgraph.citrix.web_server;" vertex="1" parent="1">
          <mxGeometry x="590" y="157.5" width="51" height="60" as="geometry" />
        </mxCell>
        <mxCell id="0GKLrgqh9CLTe_BwdtgN-175" value="" style="verticalLabelPosition=bottom;aspect=fixed;html=1;verticalAlign=top;strokeColor=none;align=center;outlineConnect=0;shape=mxgraph.citrix.web_server;" vertex="1" parent="1">
          <mxGeometry x="604.5" y="187.5" width="51" height="60" as="geometry" />
        </mxCell>
        <mxCell id="0GKLrgqh9CLTe_BwdtgN-176" value="Web Servers" style="verticalLabelPosition=bottom;aspect=fixed;html=1;verticalAlign=top;strokeColor=none;align=center;outlineConnect=0;shape=mxgraph.citrix.web_server;" vertex="1" parent="1">
          <mxGeometry x="619" y="212.5" width="51" height="60" as="geometry" />
        </mxCell>
        <mxCell id="0GKLrgqh9CLTe_BwdtgN-178" value="SQL Server" style="verticalLabelPosition=bottom;aspect=fixed;html=1;verticalAlign=top;strokeColor=none;align=center;outlineConnect=0;shape=mxgraph.citrix.database_server;" vertex="1" parent="1">
          <mxGeometry x="740" y="183" width="80" height="90" as="geometry" />
        </mxCell>
        <mxCell id="0GKLrgqh9CLTe_BwdtgN-179" value="PostgreSQL Server" style="verticalLabelPosition=bottom;aspect=fixed;html=1;verticalAlign=top;strokeColor=none;align=center;outlineConnect=0;shape=mxgraph.citrix.database_server;" vertex="1" parent="1">
          <mxGeometry x="1080" y="280" width="51.11" height="57.5" as="geometry" />
        </mxCell>
        <mxCell id="0GKLrgqh9CLTe_BwdtgN-181" value="" style="verticalLabelPosition=bottom;aspect=fixed;html=1;verticalAlign=top;strokeColor=none;align=center;outlineConnect=0;shape=mxgraph.citrix.license_server;" vertex="1" parent="1">
          <mxGeometry x="1064" y="150" width="48.18" height="63" as="geometry" />
        </mxCell>
        <mxCell id="0GKLrgqh9CLTe_BwdtgN-182" value="EDI Service" style="verticalLabelPosition=bottom;aspect=fixed;html=1;verticalAlign=top;strokeColor=none;align=center;outlineConnect=0;shape=mxgraph.citrix.license_server;" vertex="1" parent="1">
          <mxGeometry x="1091" y="170" width="48.18" height="63" as="geometry" />
        </mxCell>
        <mxCell id="0GKLrgqh9CLTe_BwdtgN-191" value="" style="verticalLabelPosition=bottom;aspect=fixed;html=1;verticalAlign=top;strokeColor=none;align=center;outlineConnect=0;shape=mxgraph.citrix.desktop;" vertex="1" parent="1">
          <mxGeometry x="-100" y="-147" width="89" height="98" as="geometry" />
        </mxCell>
        <mxCell id="0GKLrgqh9CLTe_BwdtgN-192" value="" style="verticalLabelPosition=bottom;aspect=fixed;html=1;verticalAlign=top;strokeColor=none;align=center;outlineConnect=0;shape=mxgraph.citrix.laptop_2;" vertex="1" parent="1">
          <mxGeometry x="-270" y="-141" width="116" height="86.5" as="geometry" />
        </mxCell>
        <mxCell id="0GKLrgqh9CLTe_BwdtgN-194" value="" style="verticalLabelPosition=bottom;aspect=fixed;html=1;verticalAlign=top;strokeColor=none;align=center;outlineConnect=0;shape=mxgraph.citrix.tablet_2;" vertex="1" parent="1">
          <mxGeometry x="-253" y="-32.5" width="82" height="86" as="geometry" />
        </mxCell>
        <mxCell id="0GKLrgqh9CLTe_BwdtgN-195" value="" style="verticalLabelPosition=bottom;aspect=fixed;html=1;verticalAlign=top;strokeColor=none;align=center;outlineConnect=0;shape=mxgraph.citrix.pda;" vertex="1" parent="1">
          <mxGeometry x="-70.5" y="-32.5" width="30" height="61" as="geometry" />
        </mxCell>
        <mxCell id="0GKLrgqh9CLTe_BwdtgN-196" value="" style="shape=flexArrow;endArrow=classic;startArrow=classic;html=1;entryX=0.07;entryY=0.4;entryDx=0;entryDy=0;entryPerimeter=0;" edge="1" parent="1" target="50">
          <mxGeometry width="50" height="50" relative="1" as="geometry">
            <mxPoint x="90" y="-40" as="sourcePoint" />
            <mxPoint x="150" y="-90" as="targetPoint" />
          </mxGeometry>
        </mxCell>
        <mxCell id="0GKLrgqh9CLTe_BwdtgN-197" value="" style="shape=flexArrow;endArrow=classic;startArrow=classic;html=1;" edge="1" parent="1" source="50" target="4">
          <mxGeometry width="50" height="50" relative="1" as="geometry">
            <mxPoint x="380" y="280" as="sourcePoint" />
            <mxPoint x="430" y="230" as="targetPoint" />
          </mxGeometry>
        </mxCell>
        <mxCell id="0GKLrgqh9CLTe_BwdtgN-198" value="Channel Advisor" style="ellipse;shape=cloud;whiteSpace=wrap;html=1;shadow=0;strokeColor=#23445D;fillColor=#BAC8D3;gradientColor=none;fontSize=18;fontColor=#23445D;fontStyle=0;gradientDirection=north;strokeWidth=2;" vertex="1" parent="1">
          <mxGeometry x="210" y="154" width="120" height="80" as="geometry" />
        </mxCell>
        <mxCell id="0GKLrgqh9CLTe_BwdtgN-199" value="&lt;span&gt;Marketplaces&lt;/span&gt;" style="rounded=1;whiteSpace=wrap;html=1;shadow=0;strokeColor=none;fillColor=#BAC8D3;gradientColor=none;fontSize=18;fontColor=#AE4132;verticalAlign=top;opacity=70;fontStyle=0;strokeWidth=3;" vertex="1" parent="1">
          <mxGeometry x="-300" y="154" width="450" height="356" as="geometry" />
        </mxCell>
        <mxCell id="0GKLrgqh9CLTe_BwdtgN-200" value="Amazon" style="verticalLabelPosition=bottom;aspect=fixed;html=1;verticalAlign=top;strokeColor=none;align=center;outlineConnect=0;shape=mxgraph.citrix.web_server;" vertex="1" parent="1">
          <mxGeometry x="-230" y="200" width="76.5" height="90" as="geometry" />
        </mxCell>
        <mxCell id="0GKLrgqh9CLTe_BwdtgN-201" value="eBay" style="verticalLabelPosition=bottom;aspect=fixed;html=1;verticalAlign=top;strokeColor=none;align=center;outlineConnect=0;shape=mxgraph.citrix.web_server;" vertex="1" parent="1">
          <mxGeometry x="-133.25" y="190" width="76.5" height="90" as="geometry" />
        </mxCell>
        <mxCell id="0GKLrgqh9CLTe_BwdtgN-202" value="Walmart" style="verticalLabelPosition=bottom;aspect=fixed;html=1;verticalAlign=top;strokeColor=none;align=center;outlineConnect=0;shape=mxgraph.citrix.web_server;" vertex="1" parent="1">
          <mxGeometry x="-30" y="190" width="76.5" height="90" as="geometry" />
        </mxCell>
        <mxCell id="0GKLrgqh9CLTe_BwdtgN-203" value="Sears" style="verticalLabelPosition=bottom;aspect=fixed;html=1;verticalAlign=top;strokeColor=none;align=center;outlineConnect=0;shape=mxgraph.citrix.web_server;" vertex="1" parent="1">
          <mxGeometry x="-230" y="330" width="76.5" height="90" as="geometry" />
        </mxCell>
        <mxCell id="0GKLrgqh9CLTe_BwdtgN-204" value="Shop.com" style="verticalLabelPosition=bottom;aspect=fixed;html=1;verticalAlign=top;strokeColor=none;align=center;outlineConnect=0;shape=mxgraph.citrix.web_server;" vertex="1" parent="1">
          <mxGeometry x="-120" y="330" width="76.5" height="90" as="geometry" />
        </mxCell>
        <mxCell id="0GKLrgqh9CLTe_BwdtgN-205" value="NewEgg" style="verticalLabelPosition=bottom;aspect=fixed;html=1;verticalAlign=top;strokeColor=none;align=center;outlineConnect=0;shape=mxgraph.citrix.web_server;" vertex="1" parent="1">
          <mxGeometry x="-11" y="320" width="76.5" height="90" as="geometry" />
        </mxCell>
        <mxCell id="0GKLrgqh9CLTe_BwdtgN-206" value="Channel &lt;br&gt;Sale" style="ellipse;shape=cloud;whiteSpace=wrap;html=1;shadow=0;strokeColor=#23445D;fillColor=#BAC8D3;gradientColor=none;fontSize=18;fontColor=#23445D;fontStyle=0;gradientDirection=north;strokeWidth=2;" vertex="1" parent="1">
          <mxGeometry x="220" y="310" width="120" height="80" as="geometry" />
        </mxCell>
        <mxCell id="0GKLrgqh9CLTe_BwdtgN-207" value="" style="shape=flexArrow;endArrow=classic;startArrow=classic;html=1;" edge="1" parent="1" source="0GKLrgqh9CLTe_BwdtgN-199" target="0GKLrgqh9CLTe_BwdtgN-198">
          <mxGeometry width="50" height="50" relative="1" as="geometry">
            <mxPoint x="100" y="-30" as="sourcePoint" />
            <mxPoint x="228.4000000000001" y="-25.5" as="targetPoint" />
          </mxGeometry>
        </mxCell>
        <mxCell id="0GKLrgqh9CLTe_BwdtgN-208" value="" style="shape=flexArrow;endArrow=classic;startArrow=classic;html=1;entryX=0.07;entryY=0.4;entryDx=0;entryDy=0;entryPerimeter=0;" edge="1" parent="1" source="0GKLrgqh9CLTe_BwdtgN-199" target="0GKLrgqh9CLTe_BwdtgN-206">
          <mxGeometry width="50" height="50" relative="1" as="geometry">
            <mxPoint x="110" y="-20" as="sourcePoint" />
            <mxPoint x="238.4000000000001" y="-15.5" as="targetPoint" />
          </mxGeometry>
        </mxCell>
        <mxCell id="0GKLrgqh9CLTe_BwdtgN-209" value="FTP" style="shape=flexArrow;endArrow=classic;startArrow=classic;html=1;entryX=0.942;entryY=0.525;entryDx=0;entryDy=0;entryPerimeter=0;" edge="1" parent="1" source="4" target="0GKLrgqh9CLTe_BwdtgN-206">
          <mxGeometry width="50" height="50" relative="1" as="geometry">
            <mxPoint x="490" y="240" as="sourcePoint" />
            <mxPoint x="258.4000000000001" y="612" as="targetPoint" />
          </mxGeometry>
        </mxCell>
        <mxCell id="0GKLrgqh9CLTe_BwdtgN-210" value="API" style="shape=flexArrow;endArrow=classic;startArrow=classic;html=1;exitX=0.875;exitY=0.5;exitDx=0;exitDy=0;exitPerimeter=0;" edge="1" parent="1" source="0GKLrgqh9CLTe_BwdtgN-198" target="4">
          <mxGeometry width="50" height="50" relative="1" as="geometry">
            <mxPoint x="190" y="624.5840474620964" as="sourcePoint" />
            <mxPoint x="490" y="240" as="targetPoint" />
          </mxGeometry>
        </mxCell>
        <mxCell id="0GKLrgqh9CLTe_BwdtgN-211" value="SPS Commerce" style="rounded=1;whiteSpace=wrap;html=1;shadow=0;strokeColor=none;fillColor=#BAC8D3;gradientColor=none;fontSize=18;fontColor=#AE4132;verticalAlign=top;opacity=70;fontStyle=0;strokeWidth=3;" vertex="1" parent="1">
          <mxGeometry x="1500" y="-160" width="390" height="270" as="geometry" />
        </mxCell>
        <mxCell id="0GKLrgqh9CLTe_BwdtgN-212" value="Distributors (SPS)" style="rounded=1;whiteSpace=wrap;html=1;shadow=0;strokeColor=none;fillColor=#BAC8D3;gradientColor=none;fontSize=18;fontColor=#AE4132;verticalAlign=top;opacity=70;fontStyle=0;strokeWidth=3;" vertex="1" parent="1">
          <mxGeometry x="2000" y="-160" width="390" height="320" as="geometry" />
        </mxCell>
        <mxCell id="0GKLrgqh9CLTe_BwdtgN-213" value="" style="verticalLabelPosition=bottom;aspect=fixed;html=1;verticalAlign=top;strokeColor=none;align=center;outlineConnect=0;shape=mxgraph.citrix.tower_server;" vertex="1" parent="1">
          <mxGeometry x="1620" y="-92.5" width="65" height="85" as="geometry" />
        </mxCell>
        <mxCell id="0GKLrgqh9CLTe_BwdtgN-215" value="" style="verticalLabelPosition=bottom;aspect=fixed;html=1;verticalAlign=top;strokeColor=none;align=center;outlineConnect=0;shape=mxgraph.citrix.tower_server;" vertex="1" parent="1">
          <mxGeometry x="1650" y="-67.5" width="65" height="85" as="geometry" />
        </mxCell>
        <mxCell id="0GKLrgqh9CLTe_BwdtgN-216" value="" style="verticalLabelPosition=bottom;aspect=fixed;html=1;verticalAlign=top;strokeColor=none;align=center;outlineConnect=0;shape=mxgraph.citrix.tower_server;" vertex="1" parent="1">
          <mxGeometry x="1685" y="-40" width="65" height="85" as="geometry" />
        </mxCell>
        <mxCell id="0GKLrgqh9CLTe_BwdtgN-217" value="SP Richards" style="verticalLabelPosition=bottom;aspect=fixed;html=1;verticalAlign=top;strokeColor=none;align=center;outlineConnect=0;shape=mxgraph.citrix.tower_server;" vertex="1" parent="1">
          <mxGeometry x="2110" y="-102" width="65" height="85" as="geometry" />
        </mxCell>
        <mxCell id="0GKLrgqh9CLTe_BwdtgN-218" value="Sheppard" style="verticalLabelPosition=bottom;aspect=fixed;html=1;verticalAlign=top;strokeColor=none;align=center;outlineConnect=0;shape=mxgraph.citrix.tower_server;" vertex="1" parent="1">
          <mxGeometry x="2210" y="-100" width="65" height="85" as="geometry" />
        </mxCell>
        <mxCell id="0GKLrgqh9CLTe_BwdtgN-219" value="&lt;span style=&quot;line-height: 17.1818180084229px&quot;&gt;Accounting&amp;nbsp;&lt;/span&gt;" style="rounded=1;whiteSpace=wrap;html=1;shadow=0;strokeColor=none;fillColor=#BAC8D3;gradientColor=none;fontSize=18;fontColor=#AE4132;verticalAlign=top;opacity=70;fontStyle=0;strokeWidth=3;" vertex="1" parent="1">
          <mxGeometry x="975" y="480" width="290" height="170" as="geometry" />
        </mxCell>
        <mxCell id="0GKLrgqh9CLTe_BwdtgN-220" value="Great Plains" style="verticalLabelPosition=bottom;aspect=fixed;html=1;verticalAlign=top;strokeColor=none;align=center;outlineConnect=0;shape=mxgraph.citrix.license_server;" vertex="1" parent="1">
          <mxGeometry x="1091" y="530" width="62.33" height="81.5" as="geometry" />
        </mxCell>
        <mxCell id="0GKLrgqh9CLTe_BwdtgN-221" value="File Share" style="shape=flexArrow;endArrow=classic;startArrow=classic;html=1;" edge="1" parent="1" source="0GKLrgqh9CLTe_BwdtgN-219" target="10">
          <mxGeometry width="50" height="50" relative="1" as="geometry">
            <mxPoint x="359.796848936508" y="259.2111733084921" as="sourcePoint" />
            <mxPoint x="500" y="251.14197530864192" as="targetPoint" />
          </mxGeometry>
        </mxCell>
        <mxCell id="0GKLrgqh9CLTe_BwdtgN-222" value="FTP" style="shape=flexArrow;endArrow=classic;startArrow=classic;html=1;entryX=1;entryY=0.5;entryDx=0;entryDy=0;exitX=0;exitY=0.5;exitDx=0;exitDy=0;" edge="1" parent="1" source="0GKLrgqh9CLTe_BwdtgN-211" target="10">
          <mxGeometry width="50" height="50" relative="1" as="geometry">
            <mxPoint x="970.201037613489" y="540" as="sourcePoint" />
            <mxPoint x="1049.9675745784693" y="390" as="targetPoint" />
          </mxGeometry>
        </mxCell>
        <mxCell id="0GKLrgqh9CLTe_BwdtgN-225" value="FTP" style="shape=flexArrow;endArrow=classic;startArrow=classic;html=1;" edge="1" parent="1" source="0GKLrgqh9CLTe_BwdtgN-212" target="0GKLrgqh9CLTe_BwdtgN-211">
          <mxGeometry width="50" height="50" relative="1" as="geometry">
            <mxPoint x="2010" y="215" as="sourcePoint" />
            <mxPoint x="1920" y="214.5" as="targetPoint" />
          </mxGeometry>
        </mxCell>
        <mxCell id="0GKLrgqh9CLTe_BwdtgN-226" value="Bunzl" style="verticalLabelPosition=bottom;aspect=fixed;html=1;verticalAlign=top;strokeColor=none;align=center;outlineConnect=0;shape=mxgraph.citrix.tower_server;" vertex="1" parent="1">
          <mxGeometry x="2110" y="17.5" width="65" height="85" as="geometry" />
        </mxCell>
        <mxCell id="0GKLrgqh9CLTe_BwdtgN-227" value="Distributors (Direct)" style="rounded=1;whiteSpace=wrap;html=1;shadow=0;strokeColor=none;fillColor=#BAC8D3;gradientColor=none;fontSize=18;fontColor=#AE4132;verticalAlign=top;opacity=70;fontStyle=0;strokeWidth=3;" vertex="1" parent="1">
          <mxGeometry x="1517" y="139" width="390" height="191" as="geometry" />
        </mxCell>
        <mxCell id="0GKLrgqh9CLTe_BwdtgN-228" value="FTP" style="shape=flexArrow;endArrow=classic;startArrow=classic;html=1;" edge="1" parent="1" source="0GKLrgqh9CLTe_BwdtgN-227" target="10">
          <mxGeometry width="50" height="50" relative="1" as="geometry">
            <mxPoint x="1540" y="235" as="sourcePoint" />
            <mxPoint x="1330" y="239.5" as="targetPoint" />
          </mxGeometry>
        </mxCell>
        <mxCell id="0GKLrgqh9CLTe_BwdtgN-229" value="API" style="shape=flexArrow;endArrow=classic;startArrow=classic;html=1;exitX=0;exitY=0.722;exitDx=0;exitDy=0;exitPerimeter=0;" edge="1" parent="1" source="0GKLrgqh9CLTe_BwdtgN-227" target="10">
          <mxGeometry width="50" height="50" relative="1" as="geometry">
            <mxPoint x="1550" y="245" as="sourcePoint" />
            <mxPoint x="1340" y="249.5" as="targetPoint" />
          </mxGeometry>
        </mxCell>
        <mxCell id="0GKLrgqh9CLTe_BwdtgN-230" value="Essendant" style="verticalLabelPosition=bottom;aspect=fixed;html=1;verticalAlign=top;strokeColor=none;align=center;outlineConnect=0;shape=mxgraph.citrix.tower_server;" vertex="1" parent="1">
          <mxGeometry x="1602" y="196.75" width="65" height="85" as="geometry" />
        </mxCell>
        <mxCell id="0GKLrgqh9CLTe_BwdtgN-231" value="Forman" style="verticalLabelPosition=bottom;aspect=fixed;html=1;verticalAlign=top;strokeColor=none;align=center;outlineConnect=0;shape=mxgraph.citrix.tower_server;" vertex="1" parent="1">
          <mxGeometry x="1702" y="198.75" width="65" height="85" as="geometry" />
        </mxCell>
        <mxCell id="0GKLrgqh9CLTe_BwdtgN-236" value="..." style="verticalLabelPosition=bottom;aspect=fixed;html=1;verticalAlign=top;strokeColor=none;align=center;outlineConnect=0;shape=mxgraph.citrix.tower_server;" vertex="1" parent="1">
          <mxGeometry x="2220" y="16.25" width="65" height="85" as="geometry" />
        </mxCell>
        <mxCell id="0GKLrgqh9CLTe_BwdtgN-239" value="" style="shape=flexArrow;endArrow=classic;startArrow=classic;html=1;entryX=1;entryY=0.5;entryDx=0;entryDy=0;" edge="1" parent="1" source="10" target="4">
          <mxGeometry width="50" height="50" relative="1" as="geometry">
            <mxPoint x="323.5755265097955" y="9.996856300298532" as="sourcePoint" />
            <mxPoint x="500" y="122.10493827160508" as="targetPoint" />
          </mxGeometry>
        </mxCell>
        <mxCell id="0GKLrgqh9CLTe_BwdtgN-240" value="Third Party Services" style="rounded=1;whiteSpace=wrap;html=1;shadow=0;strokeColor=none;fillColor=#BAC8D3;gradientColor=none;fontSize=18;fontColor=#AE4132;verticalAlign=top;opacity=70;fontStyle=0;strokeWidth=3;" vertex="1" parent="1">
          <mxGeometry x="643.8899999999999" y="-267.5" width="509.44" height="227.5" as="geometry" />
        </mxCell>
        <mxCell id="0GKLrgqh9CLTe_BwdtgN-244" value="Signifyd (Fraud Check)" style="verticalLabelPosition=bottom;aspect=fixed;html=1;verticalAlign=top;strokeColor=none;align=center;outlineConnect=0;shape=mxgraph.citrix.tower_server;" vertex="1" parent="1">
          <mxGeometry x="693.3299999999999" y="-220" width="65" height="85" as="geometry" />
        </mxCell>
        <mxCell id="0GKLrgqh9CLTe_BwdtgN-245" value="FedEx &lt;br&gt;(Address Validation)" style="verticalLabelPosition=bottom;aspect=fixed;html=1;verticalAlign=top;strokeColor=none;align=center;outlineConnect=0;shape=mxgraph.citrix.tower_server;" vertex="1" parent="1">
          <mxGeometry x="845.51" y="-221.25" width="65" height="85" as="geometry" />
        </mxCell>
        <mxCell id="0GKLrgqh9CLTe_BwdtgN-246" value="" style="shape=flexArrow;endArrow=classic;startArrow=classic;html=1;entryX=0.75;entryY=0;entryDx=0;entryDy=0;" edge="1" parent="1" source="0GKLrgqh9CLTe_BwdtgN-240" target="10">
          <mxGeometry width="50" height="50" relative="1" as="geometry">
            <mxPoint x="1510" y="-15" as="sourcePoint" />
            <mxPoint x="1330" y="239.5" as="targetPoint" />
          </mxGeometry>
        </mxCell>
        <mxCell id="0GKLrgqh9CLTe_BwdtgN-248" value="3PL Warehouses" style="rounded=1;whiteSpace=wrap;html=1;shadow=0;strokeColor=none;fillColor=#BAC8D3;gradientColor=none;fontSize=18;fontColor=#AE4132;verticalAlign=top;opacity=70;fontStyle=0;strokeWidth=3;" vertex="1" parent="1">
          <mxGeometry x="1522.5" y="370" width="390" height="191" as="geometry" />
        </mxCell>
        <mxCell id="0GKLrgqh9CLTe_BwdtgN-249" value="CIS Warehouse &lt;br&gt;(ShipStation)" style="verticalLabelPosition=bottom;aspect=fixed;html=1;verticalAlign=top;strokeColor=none;align=center;outlineConnect=0;shape=mxgraph.citrix.tower_server;" vertex="1" parent="1">
          <mxGeometry x="1607.5" y="427.75" width="65" height="85" as="geometry" />
        </mxCell>
        <mxCell id="0GKLrgqh9CLTe_BwdtgN-250" value="East Coast&amp;nbsp;&lt;br&gt;(InfoPlus)" style="verticalLabelPosition=bottom;aspect=fixed;html=1;verticalAlign=top;strokeColor=none;align=center;outlineConnect=0;shape=mxgraph.citrix.tower_server;" vertex="1" parent="1">
          <mxGeometry x="1750" y="427.75" width="65" height="85" as="geometry" />
        </mxCell>
        <mxCell id="0GKLrgqh9CLTe_BwdtgN-251" value="API" style="shape=flexArrow;endArrow=classic;startArrow=classic;html=1;" edge="1" parent="1" target="10">
          <mxGeometry width="50" height="50" relative="1" as="geometry">
            <mxPoint x="1520" y="490" as="sourcePoint" />
            <mxPoint x="1350" y="259.5" as="targetPoint" />
          </mxGeometry>
        </mxCell>
        <mxCell id="0GKLrgqh9CLTe_BwdtgN-252" value="&lt;span&gt;Shopping Services&lt;/span&gt;" style="rounded=1;whiteSpace=wrap;html=1;shadow=0;strokeColor=none;fillColor=#BAC8D3;gradientColor=none;fontSize=18;fontColor=#AE4132;verticalAlign=top;opacity=70;fontStyle=0;strokeWidth=3;" vertex="1" parent="1">
          <mxGeometry x="-56.75" y="561" width="216.75" height="180" as="geometry" />
        </mxCell>
        <mxCell id="0GKLrgqh9CLTe_BwdtgN-254" value="Negotiatus" style="verticalLabelPosition=bottom;aspect=fixed;html=1;verticalAlign=top;strokeColor=none;align=center;outlineConnect=0;shape=mxgraph.citrix.web_server;" vertex="1" parent="1">
          <mxGeometry x="30" y="601" width="76.5" height="90" as="geometry" />
        </mxCell>
        <mxCell id="0GKLrgqh9CLTe_BwdtgN-255" value="&lt;span style=&quot;line-height: 17.1818180084229px&quot;&gt;Auto Delivery Environment&lt;br&gt;&lt;/span&gt;" style="rounded=1;whiteSpace=wrap;html=1;shadow=0;strokeColor=none;fillColor=#BAC8D3;gradientColor=none;fontSize=18;fontColor=#AE4132;verticalAlign=top;opacity=70;fontStyle=0;strokeWidth=3;" vertex="1" parent="1">
          <mxGeometry x="570" y="450" width="300" height="221" as="geometry" />
        </mxCell>
        <mxCell id="0GKLrgqh9CLTe_BwdtgN-259" value="PostgreSQL Server" style="verticalLabelPosition=bottom;aspect=fixed;html=1;verticalAlign=top;strokeColor=none;align=center;outlineConnect=0;shape=mxgraph.citrix.database_server;" vertex="1" parent="1">
          <mxGeometry x="750.0000000000001" y="527" width="51.11" height="57.5" as="geometry" />
        </mxCell>
        <mxCell id="0GKLrgqh9CLTe_BwdtgN-260" value="" style="verticalLabelPosition=bottom;aspect=fixed;html=1;verticalAlign=top;strokeColor=none;align=center;outlineConnect=0;shape=mxgraph.citrix.license_server;" vertex="1" parent="1">
          <mxGeometry x="619.0000000000001" y="512.75" width="48.18" height="63" as="geometry" />
        </mxCell>
        <mxCell id="0GKLrgqh9CLTe_BwdtgN-261" value="EDI Service" style="verticalLabelPosition=bottom;aspect=fixed;html=1;verticalAlign=top;strokeColor=none;align=center;outlineConnect=0;shape=mxgraph.citrix.license_server;" vertex="1" parent="1">
          <mxGeometry x="646.0000000000001" y="532.75" width="48.18" height="63" as="geometry" />
        </mxCell>
        <mxCell id="0GKLrgqh9CLTe_BwdtgN-262" value="API" style="shape=flexArrow;endArrow=classic;startArrow=classic;html=1;exitX=0.5;exitY=0;exitDx=0;exitDy=0;" edge="1" parent="1" source="0GKLrgqh9CLTe_BwdtgN-255" target="4">
          <mxGeometry width="50" height="50" relative="1" as="geometry">
            <mxPoint x="930" y="239.5" as="sourcePoint" />
            <mxPoint x="870" y="239.5" as="targetPoint" />
          </mxGeometry>
        </mxCell>
        <mxCell id="0GKLrgqh9CLTe_BwdtgN-263" value="API" style="shape=flexArrow;endArrow=classic;startArrow=classic;html=1;" edge="1" parent="1" source="4" target="0GKLrgqh9CLTe_BwdtgN-252">
          <mxGeometry width="50" height="50" relative="1" as="geometry">
            <mxPoint x="500" y="305.77237103754806" as="sourcePoint" />
            <mxPoint x="343.03999999999996" y="362" as="targetPoint" />
          </mxGeometry>
        </mxCell>
        <mxCell id="0GKLrgqh9CLTe_BwdtgN-264" value="Vertex (Tax)" style="verticalLabelPosition=bottom;aspect=fixed;html=1;verticalAlign=top;strokeColor=none;align=center;outlineConnect=0;shape=mxgraph.citrix.tower_server;" vertex="1" parent="1">
          <mxGeometry x="998.3299999999999" y="-220" width="65" height="85" as="geometry" />
        </mxCell>
        <mxCell id="0GKLrgqh9CLTe_BwdtgN-265" value="" style="shape=flexArrow;endArrow=classic;startArrow=classic;html=1;entryX=0.25;entryY=0;entryDx=0;entryDy=0;" edge="1" parent="1" source="0GKLrgqh9CLTe_BwdtgN-240" target="4">
          <mxGeometry width="50" height="50" relative="1" as="geometry">
            <mxPoint x="974.3193607305934" y="-30" as="sourcePoint" />
            <mxPoint x="1043.0614611872143" y="89" as="targetPoint" />
          </mxGeometry>
        </mxCell>
      </root>
    </mxGraphModel>
  </diagram>
</mxfile>
